<svg width="64" height="64" viewBox="0 0 64 64" fill="none" xmlns="http://www.w3.org/2000/svg">
  <rect width="64" height="64" rx="18" fill="#059669"/>
  <path d="M14 44C19.5 35 44.5 35 50 44" stroke="#BBF7D0" stroke-width="4" stroke-linecap="round"/>
  <circle cx="32" cy="29" r="17" fill="#FFFFFF"/>
  <path d="M32 17L39 22L36 31H28L25 22L32 17Z" fill="#18181B"/>
  <path d="M18 29L25 22L28 31L23 38L16 35L18 29Z" fill="#18181B"/>
  <path d="M46 29L39 22L36 31L41 38L48 35L46 29Z" fill="#18181B"/>
  <path d="M23 38L28 31H36L41 38L32 44L23 38Z" fill="#18181B"/>
  <path d="M25 22L20 18" stroke="#D4D4D8" stroke-width="2" stroke-linecap="round"/>
  <path d="M39 22L44 18" stroke="#D4D4D8" stroke-width="2" stroke-linecap="round"/>
  <path d="M23 38L19 45" stroke="#D4D4D8" stroke-width="2" stroke-linecap="round"/>
  <path d="M41 38L45 45" stroke="#D4D4D8" stroke-width="2" stroke-linecap="round"/>
</svg>
